<svg width="512" height="512" viewBox="0 0 512 512" fill="none" xmlns="http://www.w3.org/2000/svg" role="img" aria-labelledby="title desc">
  <title id="title">Darwin Skill Logo</title>
  <desc id="desc">A branching evolutionary mark for the Darwin Skill plugin.</desc>
  <rect width="512" height="512" rx="112" fill="#111827"/>
  <path d="M256 418V118" stroke="#F9FAFB" stroke-width="24" stroke-linecap="round"/>
  <path d="M256 232C200 232 156 190 156 138" stroke="#34D399" stroke-width="24" stroke-linecap="round"/>
  <path d="M256 286C318 286 368 236 368 174" stroke="#60A5FA" stroke-width="24" stroke-linecap="round"/>
  <path d="M256 344C198 344 150 298 150 240" stroke="#FBBF24" stroke-width="24" stroke-linecap="round"/>
  <circle cx="256" cy="118" r="26" fill="#F9FAFB"/>
  <circle cx="156" cy="138" r="24" fill="#34D399"/>
  <circle cx="368" cy="174" r="24" fill="#60A5FA"/>
  <circle cx="150" cy="240" r="24" fill="#FBBF24"/>
  <path d="M226 418H286" stroke="#F9FAFB" stroke-width="24" stroke-linecap="round"/>
  <path d="M188 82C214 62 298 62 324 82" stroke="#374151" stroke-width="18" stroke-linecap="round"/>
  <path d="M186 444C220 466 292 466 326 444" stroke="#374151" stroke-width="18" stroke-linecap="round"/>
</svg>
